<svg width="964" height="921" viewBox="0 0 964 921" fill="none" xmlns="http://www.w3.org/2000/svg">
<rect width="964" height="921" fill="#1E1E1E"/>
<g clip-path="url(#clip0_0_1)">
<path d="M26.0575 695.899L26.3154 696.762L25.5885 696.858L25.4986 696.602L26.0575 695.899Z" fill="#333333"/>
<path d="M22.7042 685.123L22.8371 685.451L23.4702 685.493L23.5211 685.696L22.8801 685.932L22.9622 686.196L22.29 686.036L22.7042 685.123Z" fill="#333333"/>
<path d="M14.4973 692.851L15.4313 693.141L15.0601 693.924L14.0948 693.913L14.8803 693.492L14.4973 692.851Z" fill="#333333"/>
<path d="M5.34458 697.477V698.313L4.36756 698.18L4.15262 697.232L4.80527 697.84L5.07883 697.477H5.34458Z" fill="#333333"/>
<path d="M13.0865 704.51L14.0948 704.605L13.1217 705.675L12.9146 705.155L13.0865 704.51Z" fill="#333333"/>
<path d="M10.5189 705.614L10.7026 706.492L10.5423 706.599L9.88187 705.854L10.5189 705.614Z" fill="#333333"/>
<path d="M10.5854 707.489L11.8203 707.913L12.0313 709.162L10.0578 707.917L10.5854 707.489Z" fill="#333333"/>
<path d="M5.11405 711.76L5.46186 712.345L5.2352 712.463H4.65289V711.936L4.77795 711.76H5.11405Z" fill="#333333"/>
<path d="M7.27914 717.49L7.7442 718.055L7.59569 718.193H7.09936L6.88833 718.407L6.70856 718.098V717.67L6.9235 717.784L7.27914 717.49Z" fill="#333333"/>
<path d="M14.087 716.795V717.314L13.6414 717.803L12.9927 717.322L13.5555 716.795H14.087Z" fill="#333333"/>
<path d="M0 721.99V721.769L0.160231 721.757L0.453337 722.086L0.625292 722.094L0.773799 722.006L0.937938 722.614H0V722.556L0.218852 722.396L0 721.99Z" fill="#333333"/>
<path d="M9.76458 721.169H11.1519L11.492 722.097L10.4016 722.552L9.12366 721.837L9.76458 721.169Z" fill="#333333"/>
<path d="M4.94595 727.426L5.41492 728.355L4.66457 727.866L4.38319 728.297H4.17215L4.03928 727.568L4.94595 727.426Z" fill="#333333"/>
<path d="M17.6629 730.547L18.0615 731.384L17.233 732.022L17.487 731.201L16.8461 730.948L17.6629 730.547Z" fill="#333333"/>
<path d="M32.58 726.658L32.8692 727.029L33.3577 726.953L33.5257 727.021V727.361L33.0529 727.801L32.9043 727.69V727.571L32.8418 727.51H32.3377L32.58 726.658Z" fill="#333333"/>
<path d="M39.5168 734.696L39.9389 735.219L40.1617 735.097L40.2398 735.769L39.3879 735.662L39.3929 735.607L39.2468 735.534L39.5056 735.38L39.3688 734.822L39.5168 734.696Z" fill="#333333"/>
<path d="M55.4383 727.526L56.2355 728.068L55.8252 728.194L55.7119 728.419V728.744H55.3015L54.9654 728.148L55.1374 728.076H55.2898L55.4383 727.526Z" fill="#333333"/>
<path d="M44.7732 711.581L45.2617 712.012L45.0621 712.195L44.5113 712.532L44.398 712.417L44.7732 711.581Z" fill="#333333"/>
<path d="M50.0959 698.18L49.8341 698.619L50.1858 699.043L49.8654 699.352L49.2479 699.146L49.1806 698.979L49.4081 698.86L49.1501 698.302L50.0959 698.18Z" fill="#333333"/>
<path d="M48.296 687.775L47.5334 688.414L48.081 688.78L48.1929 688.572L48.7787 688.584L48.8821 688.384L48.2419 688.083L48.3141 688.032L48.296 687.775Z" fill="#333333"/>
<path d="M34.5966 681.6L35.5306 682.108L35.6791 681.501L34.5966 681.6Z" fill="#333333"/>
<path d="M34.6005 703.795L36.9613 703.775L42.7342 708.737L43.976 709.945L41.5392 712.326L40.8266 715.759L38.8059 721.006L39.5989 721.404L45.3815 721.272L44.8298 725.533L43.29 727.173L42.0086 727.511L39.4228 725.364L37.1642 724.932L36.3904 723.992L37.0899 723.457L37.4886 723.64L37.4806 723.511L37.801 723.518L37.8557 723.629L37.8832 723.511L38.0785 723.381L38.3208 723.346L38.4889 723.01L38.3091 722.77L38.4693 722.689L37.9769 722.605L37.7854 722.445L37.8088 722.346L37.4298 722.235L37.4845 722.426L37.0898 722.158L37.0507 722.25L36.8631 722.158L36.9061 721.975L36.7303 721.922L36.6091 721.696L34.6902 724.072L30.8056 722.594L27.4837 723.713L23.6186 720.906L18.8436 721.491L18.1402 722.427L16.7961 722.826L15.2045 721.754L15.8494 717.815L15.3257 717.437L15.3531 717.032L14.9154 716.715L14.9234 716.226L14.7827 716.02L14.22 716.172L14.1222 715.729L13.9112 715.565L13.2155 715.584L13.0514 715.026L11.539 715.852L11.1052 715.194L12.3714 713.93L12.7779 712.944L12.0548 711.974L10.175 711.283L10.2728 710.385L12.2112 710.668L12.0393 709.812L12.6098 709.43L12.3714 707.104L13.8096 706.695L13.8643 705.533L14.0052 705.386L14.5248 705.14L14.5288 704.693L14.9001 704.25L12.4458 703.184L12.8757 702.095L14.2552 701.931L16.7173 702.856L17.8624 702.374L18.3587 700.338L18.8824 700.208L20.9771 700.747L22.9194 701.423L24.7367 704.12L27.9843 705.522L28.0234 705.381L27.8124 705.388L27.7412 705.202L28.0156 704.819L28.182 704.901L28.3595 705.163L28.6252 705.159L28.6342 705.374L28.5471 705.434L28.7347 705.438L28.7503 705.316L28.9221 705.257L29.1802 705.293L29.2975 705.064L29.6453 705.033L29.7742 704.793L30.0595 704.987L29.9853 704.621L30.1807 704.556L29.8414 704.353L29.4929 703.964L29.3248 703.425L29.4929 703.44L29.4342 703.005L29.7977 702.974L29.8172 703.196L30.0869 703.326L30.1806 703.253L29.9656 703.177L30.1181 702.76L30.5479 702.848L30.5245 703.085L30.6457 703.108L30.8646 702.879L31.056 703.123L31.4547 703.016L31.5328 703.318L31.9627 703.673L31.9158 703.933L32.2089 703.994L32.4355 704.407H32.5684L32.4708 704.647L32.842 704.59L33.5337 704.659L33.5377 705.224L33.3854 705.4L34.5304 705.033L34.6005 703.795Z" fill="#333333"/>
<path d="M751.486 564.45L756.512 565.535L757.825 568.079L757.577 571.773L758.498 573.624V576.689L758.109 579.997L756.796 582.229L755.905 582.771H755.27L752.284 581.289H751.325L749.747 581.732L744.117 581.166L742.512 580.592L742.155 580.204V579.773L744.195 578.414L745.183 577.624L746.261 575.413L747.564 574.597L750.113 572.411L750.238 571.457L749.871 570.642L749.493 570.255L748.888 570.004L748.171 570.481L746.864 572.085L744.448 572.938H743.792L740.578 570.21L740.213 568.848L740.719 568.642L742.58 567.552L744.245 565.481H744.475L747.453 566.066L749.364 564.92L751.486 564.45Z" fill="#333333"/>
<path d="M453.867 553.139L459.967 553.509L460.256 553.693L466.392 553.845L472.621 555.386L477.109 560.205L481.21 562.333L479.452 563.252L478.955 569.41L479.496 571.345L477.683 571.755L477.098 576.174L470.896 575.558L470.399 575.105L464.541 574.456L464.076 574.813L458.174 573.83L457.499 573.387L452.359 575.418L452.879 577.201L450.48 577.719L449.264 574.381L442.002 572.803L443.483 565.748L444.412 565.002L446.545 559.34L451.508 558.152L453.1 557.925L453.867 553.139Z" fill="#333333"/>
<path d="M305.504 549.758L306.364 550.186L313.493 553.112L320.024 552.933L321.594 552.728L327.685 557.179L327.364 561.771L328.945 568.395L329.254 569.324L326.336 571.301L326.502 577.46L322.92 582.311L320.853 587.584L320.422 589.075L315.227 592.738L313.425 592.511L312.132 592.057L306.881 595.18L303.333 596.812L299.033 597.092L296.104 596.898L292.821 598.832L287.77 601.047L286.134 598.897L284.63 597.643L283.138 597.481L281.993 596.065L282.541 594.231L282.72 592.741L282.048 590.908L275.819 581.388L276.968 576.262L275.897 566.345L280.766 555.434L294.198 550.167L297.845 553.188H302.612L305.504 549.758Z" fill="#333333"/>
<path d="M401.516 574.052L406.754 569.333L420.587 571.347L429.607 581.206L430.26 583.708L432.184 585.432L433.156 590.392L432.124 591.989L432.437 595.711L431.061 597.851L428.489 600.166L428.63 601.747L428.364 602.611L428.873 609.399L421.843 619.472L418.326 620.955L418.357 622.197L421.377 635.867L426.745 637.985L431.531 639.618L437.517 640.266L440.546 643.455L441.48 643.595L452.467 638.618L452.738 638.332L454.32 635.942L461.256 634.305L466.189 636.012L471.616 632.414L481.848 634.855L485.147 643.455L483.445 654.673L477.962 666.411L477.504 667.729L477.94 669.062L476.879 670.15L475.036 669.818L473.088 669.772L467.813 678.516L471.756 687.03L479.797 692.004L480.416 694.76L470.999 708.346L468.279 716.355L469.639 725.541L471.142 732.988L477.2 737.506L482.494 741.051L483.611 744.834L482.959 748.054L481.986 753.858L482.605 755.879L479.598 757.268L473.618 755.842L468.141 756.607L463.979 743.855L464.459 740.504L459.863 736.01L455.432 732.143L452.266 727.069L449.132 722.567L444.247 719.403L437.74 715.73L420.732 703.691V701.818L422.096 700.668L422.656 700.326L422.929 699.016L421.947 697.393L419.169 692.196L407.495 685.364L399.697 673.295L396.016 672.777L395.551 668.118H394.457L394.612 666.94L395.579 664.746L395.85 662.109L391.539 660.947L388.925 654.83L388.4 652.874L386.565 648.767L386.979 645.119V643.125L387.814 638.596L387.604 637.932L390.096 634.803L390.528 633.327L390.931 628.383L391.705 628.075L393.175 624.476L393.987 623.233L395.822 621.379L396.281 618.288L394.203 615.705L387.959 604.588L388.173 599.012L386.327 593.046L387.643 590.301L387.532 587.934L388.781 584.292L389.068 582.973L389.514 577.736L390.089 577.495L392.121 574.496L395.669 573.678L396.162 573.38L400.336 573.609L401.516 574.052Z" fill="#333333"/>
<path d="M379.48 575.249L383.768 576.521L383.838 581.22L383.471 582.664L384.182 586.904L383.385 590.618L383.463 592.222L383.142 594.384L382.72 597.578L382.783 597.899L385.031 603.759L385.507 604.904L385.993 605.963L388.182 610.274L388.9 611.247L389.63 612.273L390.978 614.726L392.216 617.103L391.608 621.62L391.387 622.43L390.182 627.054L389.497 627.184L387.032 629.215L385.263 631.668L386.623 636.584L386.325 637.535L384.479 640.614L385.142 642.797L383.451 646.87L383.196 647.756L383.274 651.073L385.319 653.948L384.434 656.411L382.854 658.205V660.193L378.277 666.038L373.325 665.746L373.115 664.147L370.96 663.737L365.588 670.122L361.686 681.921L360.083 690.727L360.392 692.326L363.963 697.88L362.261 704.601L353.782 714.984L346.984 720.3L343.635 723.315L341.225 726.805L337.467 733.298L331.421 739.306L330.968 740.937L328.945 742.731L325.584 741.996L324.844 741.542L321.859 736.864V732.618L323.628 730.889L324.921 728.479L326.933 725.497L327.795 724.093L327.906 721.878L326.369 719.976L325.54 721.953L322.805 723.881L320.864 724.773L319.14 726.729L316.454 727.745L315.448 730.186L313.978 732.531L315.47 734.908L316.277 737.123L318.996 739.922L320.898 745.853L318.775 750.91L317.814 751.115L314.862 750.997L311.148 751.083L309.888 751.504L308.573 750.824L305.887 751.342L302.493 750.035L301.764 750.878L299.608 751.342L297.84 751.094L296.9 749.171L296.491 749.192L288.842 745.14L284.973 738.02L288.079 729.117L292.324 723.542L292.976 721.878L291.793 719.9L287.095 716.756L282.088 714.001L271.012 706.027L268.171 697.772V694.509L272.593 685.39L273.245 679.144L271.532 677.47L272.571 675.989L274.262 675.784L276.02 674.66L280.165 676.908L283.945 684.05L291.583 692.586L300.117 696.81L308.042 694.563L315.249 687.68L318.554 688.631L322.434 684.471L327.718 676.595L328.503 674.401L330.061 671.549L332.117 670.068H332.637L333.753 671.408L334.107 673.364L336.052 674.196L338.749 672.705L343.447 667.616V662.743L338.329 654.823L337.511 654.066L336.804 653.829L335.643 653.04L335.597 651.342L335.667 649.477L335.315 647.407L330.422 637.757L328.515 636.367L327.827 635.297L328.296 633.678L330.035 632.99L334.118 627.098L338.528 616.26L344.011 612.187L348.034 604.397L349.029 603.284L348.554 602.052L348.477 601.339L349.25 600.042L351.141 599.729L352.71 600.583L355.44 599.556L356.048 597.649L355.181 597.055L354.108 595.98L357.447 587.411L363.36 579.035L372.817 575.811L378.757 576.712L379.48 575.249Z" fill="#333333"/>
<path d="M693.715 779.129L696.411 767.642V767.313L710.551 753.144L731.201 742.904L738.408 741.704L748.767 739.44L750.171 738.435L754.769 730.124V726.817L751.741 720.656H753.156L755.908 721.434H761.081L765.967 734.489L766.241 734.719L767.054 736.889L769.321 736.438L769.602 736.514L783.421 733.355L793.358 739.678L796.564 740.921L797.691 742.045L803.66 744.823L809.905 751.707L810.922 757.025L812.835 764.98L813.188 765.715L813.552 765.972L814.56 766.897L815.905 767.867L818.56 774.123V774.558L818.339 776.804L818.439 777.971L819.135 780.316L820.252 782.607V783.71L819.909 785.218L819.754 786.736L819.843 790.438L820.627 793.032L822.893 798.09V803.688L821.633 807.282L818.383 802.916L814.31 799.246L810.281 799.1L804.003 803.78L799.78 810.395L797.293 815.669L790.23 820.598H785.672L779.333 820.176L770.72 826.114L765.094 834.032L763.646 838.117L762.308 845.834L757.378 852.222L744.478 849.077L731.181 851.422L710.588 849.044L699.313 845.337L694.173 846.115L682.876 854.891L665.997 860.079L652.71 868.228L645.957 877.664L637.998 881.274L632.991 883.911L631.322 886.494L630.548 888.072L617.648 893.984L609.933 899.572L607.873 900L607.686 900V899.424L609.844 891.625L612.091 890.517L616.913 887.796L620.798 882.653L624.112 877.769L644.437 860.052L655.734 841.392L663.13 838.052L665.964 831.503L669.722 821.17L665.942 809.476L654.866 789.33L653.484 783.332H654.921L664.704 787.222L672.806 781.375H675.724L678.046 782.824L683.219 785.309L685.949 784.726L693.715 779.129Z" fill="#333333"/>
<path d="M394.886 159.047L395.14 159.059L395.113 159.181L395.214 159.28L395.207 159.509L395.304 159.505L395.39 159.605L395.394 159.788L395.504 159.807L395.562 159.945L395.617 159.834H395.73L395.84 159.964L395.851 159.673L396.055 159.773L396.094 159.842L396.125 159.7L396.301 159.704L396.481 159.83L396.535 160.289L396.66 160.377L396.672 160.487L396.574 160.552L396.68 160.575L396.649 160.885L396.571 160.911L396.61 161.049L396.684 161.167L396.465 161.423L396.469 161.912L396.399 161.969V162.046L395.863 162.47L395.75 162.466L395.691 162.542L395.418 162.466L394.917 162.569L394.824 162.47L394.773 162.603L394.413 162.6L394.261 162.355L394.12 162.325L394.085 162.202L394.003 162.191L393.725 161.92L393.847 161.832L393.655 161.813L393.577 161.484L393.483 161.564L393.389 161.392L393.378 161.201H393.546L393.428 161.098L393.522 161.041L393.487 160.968L393.718 160.334L393.729 160.044L393.909 159.956L393.929 159.712L394.081 159.605L394.171 159.712L394.187 159.524L394.402 159.349L394.491 159.467L394.616 159.162L394.734 159.184L394.769 159.303L394.792 159.142L394.886 159.047Z" fill="#333333"/>
<path d="M414.673 100.856L414.884 101.249L414.235 103.48L412.887 104.034L411.433 104.229L411.671 103.702L411.429 103.129L411.917 101.593L412.625 101.146L413.731 101.211L414.673 100.856Z" fill="#333333"/>
<path d="M473.118 60.4927L473.54 60.9206L473.38 61.0581L473.509 61.2109L473.63 61.4745L473.501 61.7228L473.712 61.7534V62.3723L473.579 62.5289L473.501 63.163L473.122 63.4877L473.118 63.6711L473.026 63.8484L472.895 63.881L472.571 64.1369L472.422 64.5342L472.203 64.6603L471.559 64.9048L471.457 64.7596L471.426 64.9429L470.832 65.153L470.8 65.0002L470.722 65.1034L470.554 64.9353L470.574 64.8169L470.39 64.8474L470.066 64.5303L470.089 64.389L469.956 64.3851V64.2246L469.745 63.9381L469.843 63.5217L470.175 62.9984L470.378 62.9945L470.711 62.5934L471.109 61.5925L471.273 61.6994L471.262 61.4664L471.402 61.4167L471.414 61.1532L472.078 61.0768L471.985 60.9202L472.497 60.7597L472.493 60.5649L472.989 60.5802L473.118 60.4927Z" fill="#333333"/>
<path d="M489.036 155.479L490.013 156.488L489.501 157.301L487.445 157.806L487.781 158.596V159.047L486.55 160.613L486.796 161.763L488.141 162.306L489.11 161.213L491.001 161.752L491.978 162.764V163.452L491.271 164.032L490.65 163.876L489.344 163.761L488.676 164.216L485.729 164.689L484.268 164.258L482.392 165.419L481.563 166.057H481.036L479.273 165.423L474.912 167.027H473.481L472.063 166L469.159 167.654L467.412 168.807L466.056 168.532L465.192 169.029L463.856 170.763L461.163 170.611L460.811 170.485L452.034 173.128L448.353 172.578L446.215 173.185L444.929 172.918H443.358L441.439 174.159L439.337 175.871L437.453 175.775L435.964 176.807L434.139 177.387L433.373 176.795L430.059 177.028L427.448 176.295L422.669 176.807L420.55 177.372L418.01 177.04L417.686 176.902L416.377 177.002L414.759 176.23L413.813 176.555L411.066 176.096L409.979 177.487L409.901 177.788L408.936 178.121L406.431 176.898L404.633 176.57L403.48 175.592L402.245 175.179L399.658 176.425H398.2L394.503 177.628L393.561 179.821L392.408 180.161L390.294 178.828L388.074 178.281L386.914 179.026L386.3 179.951H385.511L384.092 178.709L381.673 178.323H380.102L376.655 176.883L373.892 177.005L372.118 176.425L368.745 172.841V170.03L368.46 168.788L367.924 167.684L365.959 166.298L364.692 164.831L363.547 160.942L363.969 160.163L362.953 157.156L363.371 155.021L364.747 153.435L364.856 153.057L366.377 153.535L367.537 153.264L370.554 154.161L372.927 153.321L381.149 157.909L382.165 160.69L387.293 165.885L387.91 167.306L392.889 168.177L397.626 170.271L399.611 170.156L402.057 171.302L403.511 171.501L405.504 171.05L406.364 171.386H406.747L408.107 171.783L411.921 172.158L412.109 172.375L414.727 173.262L415.783 173.025L416.51 173.407L417.361 173.701L419.011 173.533L420.298 173.689L421.42 173.473L422.106 173.002L422.536 172.803L424.47 172.119L424.92 172.203L425.764 171.714L432.869 168.055L439.716 167.604L440.904 167.214L441.185 166.664L441.881 166.519L449.72 167.551L456.317 165.106L458.584 165.939L462.781 165.113L467.596 163.28L470.902 163.341L471.68 162.627L472.794 162.917L474.509 163.161L476.073 162.516L477.671 161.725L478.066 161.423L480.41 161.228L480.75 161.049L483.713 159.223L485.355 156.812L489.036 155.479Z" fill="#333333"/>
<path d="M474.867 0H476.846L479.372 0.880858L481.942 3.85847L482.179 4.36642L483.594 5.31753L483.285 6.81444L483.639 7.51697L482.732 10.1595L479.306 11.4835L477.786 11.8077L476.973 12.2185L475.696 13.3695L475.652 13.564L471.441 18.3304L470.349 18.957L468.735 18.5023L467.875 18.1354L466.269 15.7854L465.37 15.858L464.565 15.7013L464.776 17.0655L465.296 18.5787L467.125 19.79L466.876 23.4425L464.941 25.8311L462.333 27.4199H461.083L459.746 28.7492L457.167 29.622L456.307 29.3239L454.58 30.3938L454.205 30.4702L451.828 33.1374L449.734 35.0633L449.179 35.8276L448.6 40.0385L446.513 41.6816L445.779 40.9136L443.199 43.4203L442.641 42.9656L442.508 43.9476L441.148 46.1028H439.784L439.424 45.8926L438.791 47.1918L436.02 48.2312L435.129 51.3812L435.262 52.6727L435.168 56.6285L433.024 57.6606L430.951 56.4177L430.559 56.2069L428.945 55.0667L427.994 56.0772L426.795 55.2882L426.95 52.9483L425.859 51.292V46.4887L423.284 47.8949L421.123 45.9346L420.798 45.8391L420.603 46.0263L418.164 47.807H417.402L415.487 50.2335L414.549 49.8743L412.939 51.0206L411.427 49.687L410.411 50.008L408.147 47.7389L407.617 47.5173L407.058 48.0577L408.291 48.6737L408.855 50.5489L410.043 52.0188L411.099 53.7373L411.935 54.5706L412.111 54.8648L412.974 55.6061L413.264 53.6802L415.909 51.185L418.047 50.1418L420.372 51.3837L420.544 51.7123L420.759 51.3913L422.252 50.7149L422.416 50.5392L422.58 50.6767L423.135 50.2832L425.238 51.8078L425.089 56.122L422.816 58.79L422.01 59.7406L421.377 63.9898L421.791 66.1679L420.486 67.6429L415.78 69.0491L414.076 68.8084L411.95 70.3483L411.306 72.9467L411.814 75.805L411.939 76.0037L410.696 78.0404H408.371L406.643 77.0087L404.787 79.8402V81.1165L409.316 92.9775L408.457 97.5706L408.722 101.491L408.199 105.251L408.277 106.673L407.847 107.345V107.995L405.455 109.049L405.221 109.294L404.627 110.333L403.36 111.22L401.524 112.191L400.726 112.748L399.726 113.291L398.718 113.757V113.918L398.342 114.567L398.733 118.251L413.748 129.501L415.765 130.486L421.205 134.613L415.538 141.698L412.177 142.309L411.247 141.637L409.457 140.689L407.12 141.239L405.189 143.547L405.4 146.283L405.94 146.704L407.698 146.574L408.347 146.918L408.363 147.743L407.81 148.253L407.18 148.48L404.068 150.928V151.301L405.057 153.452V153.689L404.674 154.059L404.193 153.754L401.848 153.429L399.863 152.451L400.613 151.709L402.501 152.034L402.997 151.476V151.19L401.246 149.921L400.429 148.966H399.597L398.843 150.231L398.296 150.506L396.682 150.846L395.548 150.781L392.762 154.575H392.019L390.542 151.962L390.999 151.01L390.304 150.353L389.776 148.977L389.514 147.797L389.092 147.529L386.306 146.092L382.882 143.448L381.065 140.383L379.529 134.636V130.399L381.495 127.793L382.569 126.895L383.961 124.617L384.117 121.377L383.226 119.458L381.01 118.343L379.423 118.117L378.708 118.45L375.805 119.015L373.823 117.869L373.35 118.037L372.831 117.46L370.982 115.935L370.322 114.751V113.883L370.435 113.807L371.424 110.658V110.093L371.635 109.909L372.104 107.93V106.126L374.319 103.257L374.405 102.848V100.78L375.472 99.7373L378.321 100.379L381.037 98.7361L381.885 96.2523L384.59 94.3074H384.86L385.008 93.9099L385.829 93.4934L385.672 91.0287L384.695 90.2148L383.754 88.5029L383.886 87.5514L383.5 86L382.562 84.162L381.897 83.4971L381.69 82.4883L381.956 82.2399L381.014 79.9549L380.936 79.3435V78.7512L381.272 78.1398L381.964 78.4226L383.488 77.9411L385.282 78.9613L386.095 79.267L388.037 80.3981L388.623 82.8781L389.182 83.8792V85.7211L388.967 86.279L389.866 86.9133L391.421 88.8965L394.028 91.4988V93.4781L393.969 93.9099L394.063 96.1033L393.442 96.3517L394.235 97.1885L394.454 96.5886L394.759 96.3975L395.118 94.7009L396.427 94.0513L396.619 93.7685L395.251 91.579L395.134 89.6263L395.001 89.0837L394.712 88.7628L394.087 88.3921L392.273 87.9221L390.573 86.4127L390.772 84.8116L390.624 83.9175L390.933 82.3393L391.714 82.0451L391.632 81.7776L392.476 79.1906L391.378 77.9296L390.237 77.0125L390.073 77.1003L389.385 76.7373L387.939 77.685L384.266 74.8344L382.312 72.1252L382.194 68.709L383.343 67.4824L383.41 67.5511L384.535 67.6734L385.348 67.4785L385.629 67.2072L385.848 66.0991L386.606 64.5591L387.427 64.8992L391.073 61.4601L391.589 59.9469L391.742 59.9087L391.609 57.658L390.092 55.3958L391.605 53.9056L391.875 52.8891H392.015L393.704 51.2193L395.407 47.6846L396.295 46.3472L397.213 43.4813L399.687 39.3774L399.804 39.404L400.805 38.3761L401.699 35.8542L403.458 34.3601L404.107 33.3436L406.127 30.9133L406.295 30.5885L408.746 29.1441L409.019 29.2511L410.243 29.4039L411.704 28.5747L413.174 26.0222L417.935 22.7398L422.185 18.0113H424.965L432.029 19.6541L438.622 16.2118L441.369 11.3806L440.391 9.57564L440.64 8.58132L444.039 7.20868L445.735 7.96527L447.167 7.28437L447.909 7.35173L448.405 7.50838L450.414 7.62304L450.992 7.83703L453.435 6.71359L457.193 6.5926L462.802 5.03084L463.615 4.69041H466.074L469.446 2.32345L471.916 0.858952L474.867 0Z" fill="#333333"/>
<path d="M868.26 483.889L869.46 486.154L871.737 487.964L873.031 488.12L874.23 488.855L873.235 489.422L871.356 489.066L870.096 489.206L869.294 489.855L864.851 488.985L863.519 487.704L863.11 486.565L863.453 485.841L864.348 486.284L865.459 485.695L866.392 483.344L866.956 482.916L868.26 483.889Z" fill="#333333"/>
<path d="M869.628 387.679L867.509 387.931L862.785 391.207L859.992 392.032L859.928 391.855L859.49 392.181L850.292 394.901L846.49 399.797L847.961 404.572L855.002 410.558L859.502 416.479L865.657 412.968L869.459 407.836L873.328 401.537L875.263 394.151L872.942 391.255L869.628 387.679Z" fill="#333333"/>
<path d="M938.048 387.899L933.163 388.808L924.464 394.945L920.259 404.635L914.881 411.742L913.881 415.243L914.615 419.325L916.773 423.237L918.735 424.56H919.061L927.688 427.16L931.342 430.092L931.24 432.959L928.395 435.854L923.878 438.989L918.516 442.327L909.332 438.574L900.247 428.277L894.831 427.24L893.24 426.484L890.122 424.365L888.166 421.621L887.867 421.048L886.352 419.804L882.286 421.804L881.135 423.393L879.046 425.553L878.073 426.182L875.355 427.133L871.111 427.857L859.029 433.585L854.429 441.313V443.118L856.033 447.677L859.117 450.143L859.736 450.336L866.357 454.703L868.889 460.27L868.977 467.901L868.756 468.699L869.972 474.959L871.398 477.26L872.139 477.594L875.056 479.854L876.084 481.854L876.017 485.323L878.296 488.64L878.454 488.812L879.99 489.313H881.577L888.818 487.171L895.052 483.485L898.004 483.172L910.361 483.29L917.801 485.55L924.62 488.932L927.307 490.705L928.192 491.505L927.682 492.974L928.489 494.498L933.464 496.962L945.954 495.633L953.194 496.412L957.483 495.709L958.992 494.319V493.929L958.831 493.551L958.659 493.497L958.124 492.963L958.194 492.118L959.66 490.68L959.777 490.031L952.539 483.221L949.468 478.057L944.848 475.006L934.019 465.418L934.017 465.416L933.605 464.793L933.511 464.484L933.276 464.679L933.187 464.49V463.905L932.999 464.094L932.313 462.65L932.575 462.53L932.348 462.198L932.782 461.77L932.341 461.292L932.001 461.573L932.241 459.088L932.874 458.131L932.671 457.734L932.053 457.172L931.745 456.462L931.44 456.022L930.822 455.877L930.232 456.137L929.212 456.053L928.868 455.522L927.708 454.525L927.242 454.112L927 453.238L927.239 452.877L927.483 452.98L927.678 452.323L927.305 452.214L927.285 452.155L927.311 451.639H927.129L926.959 451.083L926.947 451.018L926.987 450.909L927.139 450.913L926.94 450.531L927.311 450.237L926.92 449.866L926.774 449.985L926.76 449.905L926.985 449.568L927.655 449.817L927.639 449.591L927.194 449.418L927.5 449.29L927.514 449.297L927.522 449.419L928.155 449.958L928.267 449.723L928.356 449.775L928.661 450.434L928.806 450.672L929.296 450.9H929.937L931.137 451.721L931.702 452.519L930.817 454.947L931.088 455.207L932.249 455.682L932.479 456.752L933.519 457.887L933.679 458.087L934.086 458.085L944.778 453.746L956.784 452.63L964 447.754V447.242L959.222 437.008L948.788 427.624L945.401 423.366L943.207 414.8L944.051 408.502L944.848 404.696L943.488 395.678L941.097 389.901L938.048 387.899Z" fill="#333333"/>
<path d="M704.23 239.834L705.915 244.779L705.08 247.945L705.738 252.127L706.833 252.849H709.76L712.265 253.797L714.211 255.26L714.204 255.455L714.489 255.875L714.47 256.093L714.712 256.375L714.884 256.406V256.551L715.275 256.975V257.135L715.388 257.086L715.869 257.441H715.982L716.216 257.021L716.697 256.952L716.994 257.25L717.131 257.235L717.506 256.807H718.378L719.019 256.658H719.546L719.8 256.845L720.246 256.368H720.582L720.969 256.65L721.524 256.161L722.501 256.306L722.708 256.566L723.583 256.631L724.56 256.41V256.295L724.838 256.582H724.986L725.166 256.36L725.369 256.188H725.662L726.057 256.582L726.628 256.15L727.394 256.314L727.519 256.203V255.974H728.019V255.558L728.41 255.126L728.718 255.237L728.832 254.675L729.015 254.419L729.621 254.03L729.594 253.942L729.719 253.755L729.996 253.499L730.653 253.3L730.672 253.048L731.059 253.044L731.552 252.631L731.806 252.654L732.005 252.421V252.269L732.541 251.78L732.24 251.611H732.478V251.149L733.455 249.873L733.033 248.827L732.158 248.605H731.313L730.195 247.123V246.672L730.57 245.278V241.84L731.461 238.36L733.419 236.293L734.45 232.429L733.223 230.749L733.627 229.317L732.162 227.664L728.94 227.216H726.84L724.961 225.503V224.007L723.291 222.651H721.799L720.23 221.887L720.159 221.922L718.721 222.227L717.877 221.75L717.47 221.379L717.295 221.104L716.892 219.248V218.946L717.244 218.018L715.915 216.383H714.868L713.179 217.636H711.249L709.49 218.942L708.161 220.455L706.462 223.332L707.131 229.415L706.296 233.461V235.59L704.23 239.834Z" fill="#333333"/>
<path d="M663.523 228.703L658.716 230.246L653.909 231.43L652.323 233.669L652.905 237.531L651.049 240.789V243.284L651.514 243.979L653.327 245.515V249.618L653.171 249.732L653.175 249.839L653.273 249.866L653.097 249.988L653.101 250.16L653.179 250.183L653.183 250.572L653.054 250.897L652.909 250.889L652.921 251.516L652.8 251.55L652.714 251.688L652.722 252.035L652.62 252.261L652.452 252.341L652.515 252.738L652.429 252.964L652.226 253.113L652.315 253.174L652.245 253.208L652.253 253.434L652.406 253.56L652.171 253.564L652.062 253.632L651.921 253.644L651.929 253.93L651.753 254.053L651.976 254.205L651.991 254.477L652.269 254.408L652.307 254.492L652.527 254.484L652.554 254.388L652.644 254.503L652.812 254.338L652.816 254.35L653.793 256.237V256.764L653.121 260.867L652.738 262.387L650.565 264.679L650.8 267.927L650.378 269.241L648.72 270.188L648.423 271.594L649.002 273.206L655.622 279.639L657.381 283.757L664.931 286.905L668.659 291.71L676.452 294.873L678.461 293.284L683.971 298.059L689.802 303.835L694.816 306.276L697.693 309.856H704.05L707.536 311.384L713.047 310.964L719.831 314.646L726.639 312.851L728.632 310.406L732.939 306.188L733.892 305.631L734.338 305.478H734.924L740.161 306.25L741.615 306.655H744.077L744.467 306.326L749.485 303.713L751.752 302.727L753.018 302.88L754.785 304.156L755.637 305.065L757.95 311.861L755.887 321.133L757.028 326.517L761.726 330.845L768.33 332.217H770.274C770.274 332.217 775.212 325.112 775.234 325.09C775.256 325.069 777.205 316.042 777.205 316.042L773.2 310.727V305.302L772.541 304.238L770.011 297.83L771.208 295.038L777.891 290.396L780.6 289.084L785.315 282.699V272.236L780.844 268.087L776.193 269.936L769.612 266.544L759.787 268.431L759.295 269.378L758.107 271.044L757.481 271.25L756.137 271.158L755.551 270.96L753.534 269.798L750.103 267.338L743.748 268.331L739.059 265.688L730.992 267.3L726.318 265.077L720.519 267.376H714.602L707.364 265.168L701.815 259.767L697.946 254.159L696.719 251.729L692.576 249.155L690.317 243.134L688.809 242.416L686.769 243.004H686.182L685.385 242.745L684.955 242.492L682.517 239.398L682.376 239.131L678.757 236.457L669.284 233.026L667.314 230.085L663.523 228.703Z" fill="#333333"/>
<path d="M542.525 379.42L538.871 380.887L537.855 382.698L535.151 383.676L532.243 383.462L530.43 382.606L525.279 383.882L522.2 386.617L522.809 388.573L527.858 395.327L531.579 399.33L535.237 398.75L536.769 400.094L537.668 402.83L540.681 406.241L541.025 407.169L540.024 407.84L540.349 408.302L539.821 408.592L539.129 407.605L538.614 407.949L539.675 409.461L540.13 409.158L544.511 416.807L543.503 417.986L542.934 417.43L541.142 413.713L540.413 413.152L539.507 413.346L538.723 414.059V416.349L539.684 417.755L542.856 420.973L548.227 429.098L550.924 431.48L553.667 436.469L554.67 438.796L554.562 439.499H554.971H554.973L555.072 439.736L554.777 439.862L555.063 440.393L555.313 440.289L555.342 440.358L555.188 440.53V440.931L555.637 441.137V441.244L555.907 441.405L556.059 441.393L556.442 441.753L556.657 441.504L556.931 441.668L556.856 442.047L557.204 442.108L557.49 442.035L557.955 441.837L558.271 441.848L558.232 441.661H558.732V441.256H558.865L558.611 440.725L558.524 440.768L558.459 440.675L558.631 440.415L559.014 440.125L558.912 440.03L559.061 440.037L559.401 439.674L559.084 439.285L559.147 439.105L559.768 439.323L559.901 439.059L559.838 438.024L559.662 437.967V437.724L559.668 437.703L559.807 437.47L559.721 437.468L559.92 436.607L560.647 433.642L562.66 432.248L563.658 432.059L565.583 436.376L565.595 436.603L565.673 436.683L565.462 436.932L565.509 437.096H565.7L565.794 437.016L565.974 437.493L566.255 437.375V437.65L566.47 437.76L566.115 438.051L566.545 438.215L566.443 438.353L566.799 438.326L566.814 438.482L566.521 438.605L566.787 439.071L566.814 439.346L567.088 439.246L567.076 439.797L567.143 439.701L567.303 439.724L568.034 439.162L567.854 438.719L568.182 438.249L568.409 438.345V437.696L568.604 437.398L568.299 437.447L568.682 437.038L568.401 436.979L568.42 436.781L568.616 436.649L568.454 436.423L568.612 434.75L570.58 433.551L570.933 432.934L572.811 430.73L576.737 428.525L579.941 427.154L580.424 427.015L580.905 427.051L580.918 426.873L582.23 426.495L585.405 424.497L585.878 424.593L586.57 423.775L587.363 423.336L589.262 423L589.364 422.197L589.911 421.922L591.224 419.394L589.559 414.343L588.356 412.013L587.84 409.499L588.598 404.961L589.544 403.021L591.576 400.622L589.333 399.407L586.831 396.045L585.557 391.331L583.775 388.993L583.396 387.225L582.869 386.598L582.955 386.086L582.747 386.113L582.552 386.006V385.708L583.005 385.62L582.853 385.032L582.794 385.116H582.556L582.462 385.017V384.814L582.677 384.543L582.306 384.176L582.232 384.203V384.02L582.134 384.004L582.052 383.508L581.837 383.806H581.083L580.731 384.314H581.032L581.145 384.413L581.251 384.665L581.028 384.57L580.532 384.833L580.633 384.871V384.971H580.539L580.313 385.177L580.555 385.513L580.446 385.601L580.586 385.67L580.481 385.697L580.469 385.88L580.108 386.01L580.289 386.512V386.808L580.086 387.263V387.824L579.343 391.537L574.771 398.417L572.418 400.152L570.785 400.614L568.596 400.171L567.959 399.518L567.803 398.983L568.135 397.944L567.74 397.317H566.9L565.853 398.005L565.693 398.039L565.528 397.932L564.837 398.666L564.047 400.018L563.125 401.072L562.195 401.917L561.065 402.593V403.387L562.097 404.927L561.82 405.763L560.131 406.237L558.478 405.848L555.625 404.721L553.816 403.162L553.183 401.237L553.736 399.942L553.914 399.728L554.328 397.26L553.707 396.209L552.987 395.862L551.702 396.007L550.893 395.518L549.079 392.729L548.626 391.301V391.037L549.869 389.559L549.458 387.072L548.657 386.48L547.461 386.594L545.671 385.933L544.87 385.12L544.429 383.45L543.954 381.706L543.921 381.376L542.525 379.42Z" fill="#333333"/>
<path d="M64.037 431.292H66.9884L70.3874 434.345L71.098 438.586L70.3477 439.655L68.2373 441.382L66.4122 447.468V447.899L66.2285 448.782L66.2989 448.854L66.2129 449.141L66.0762 449.259L66.2481 449.366L66.0566 449.618L66.2364 449.546L66.0253 449.763L66.0918 450.042L65.9237 450.092L66.0449 450.168L65.9667 450.222L65.9784 450.443L65.8886 450.462L65.9902 450.562L65.7479 450.741L65.4899 450.589V450.287L65.4313 450.271L65.4118 450.031L65.0366 449.397L63.9228 448.434L62.0508 447.49L58.0404 446.549L56.5592 444.755V442.8L59.2342 435.247L61.3123 432.783L64.037 431.292Z" fill="#333333"/>
<path d="M55.9327 402.515L54.3109 404.977L54.0393 405.248L53.9357 405.471L53.1717 405.739L52.9391 406.608L50.3618 409.196V417.205L51.3857 418.813L53.0994 423.768L52.39 427.397L52.6011 427.637L53.4804 427.775L59.0064 428.065L63.3991 428.531L67.229 429.152H68.2451L70.248 428.829L70.5313 429.02L70.9104 428.81L71.0433 428.78L71.1566 428.894L71.2622 428.738L71.6959 428.718L71.8015 428.829L71.9343 428.665L72.0907 428.757V428.615L72.3291 428.55L72.544 428.634L72.7746 428.386L72.673 428.302L72.7746 428.199L72.9895 428.195L73.0129 427.687L73.2943 427.626L73.3177 427.538L73.224 427.488L73.4428 427.072L73.353 426.973L73.435 426.957L73.439 426.789L73.3531 426.751V426.73L73.486 426.644V426.388H73.3531V426.369L73.4312 426.312V425.508L73.5094 425.445V425.235L73.4312 425.191V424.757L73.4625 424.711L73.4312 424.642V424.513L73.3531 424.387L73.4547 424.364L73.4235 424.211L73.5251 424.123L73.4274 423.982L73.4626 423.94L73.4431 423.89V423.409L73.3532 423.395V423.357L73.3844 423.263L73.4196 423.26L73.4469 423.007L73.3532 423.004V422.99L73.5017 422.744L73.447 422.496L73.3532 422.45V418.981L72.8257 418.064V417.025L70.8755 409.209L67.9835 407.878H66.6353L60.7614 403.98L59.0575 403.122L57.9222 402.515L55.9327 402.515Z" fill="#333333"/>
</g>
<defs>
<clipPath id="clip0_0_1">
<rect width="963.55" height="920.03" fill="white"/>
</clipPath>
</defs>
</svg>
