<svg width="1200" height="1200" viewBox="0 0 1200 1200" fill="none" xmlns="http://www.w3.org/2000/svg">
<rect width="1200" height="1200" fill="#1E1E1E"/>
<path d="M32.437 927.865L32.758 929.017L31.8532 929.144L31.7413 928.803L32.437 927.865Z" fill="#333333"/>
<path d="M28.2653 913.497L28.4307 913.935L29.2188 913.991L29.2821 914.261L28.4843 914.577L28.5864 914.928L27.7496 914.714L28.2653 913.497Z" fill="#333333"/>
<path d="M18.0426 923.801L19.2053 924.188L18.7431 925.232L17.5415 925.217L18.5193 924.657L18.0426 923.801Z" fill="#333333"/>
<path d="M6.6565 929.969V931.085L5.44029 930.906L5.17273 929.643L5.98516 930.453L6.32569 929.969H6.6565Z" fill="#333333"/>
<path d="M16.2907 939.346L17.5458 939.473L16.3345 940.9L16.0767 940.207L16.2907 939.346Z" fill="#333333"/>
<path d="M13.0977 940.818L13.3263 941.99L13.1268 942.132L12.3047 941.139L13.0977 940.818Z" fill="#333333"/>
<path d="M13.1812 943.319L14.7185 943.884L14.9812 945.55L12.5244 943.889L13.1812 943.319Z" fill="#333333"/>
<path d="M6.36934 949.013L6.80231 949.793L6.52015 949.951H5.79529V949.248L5.95096 949.013H6.36934Z" fill="#333333"/>
<path d="M9.05987 956.654L9.63879 957.407L9.45392 957.591H8.83609L8.57339 957.876L8.34961 957.463V956.893L8.61717 957.046L9.05987 956.654Z" fill="#333333"/>
<path d="M17.5395 955.727V956.419L16.9849 957.071L16.1774 956.429L16.8779 955.727H17.5395Z" fill="#333333"/>
<path d="M0 962.654V962.358L0.199458 962.343L0.56432 962.781L0.778372 962.792L0.963236 962.675L1.16756 963.485H0V963.408L0.27243 963.194L0 962.654Z" fill="#333333"/>
<path d="M12.1595 961.559H13.8865L14.3098 962.796L12.9525 963.402L11.3617 962.45L12.1595 961.559Z" fill="#333333"/>
<path d="M6.15488 969.902L6.73866 971.139L5.80462 970.487L5.45435 971.063H5.19165L5.02625 970.09L6.15488 969.902Z" fill="#333333"/>
<path d="M21.9915 974.063L22.4877 975.179L21.4563 976.029L21.7726 974.934L20.9747 974.598L21.9915 974.063Z" fill="#333333"/>
<path d="M40.5574 968.878L40.9174 969.372L41.5255 969.27L41.7346 969.362V969.815L41.146 970.401L40.9611 970.253V970.095L40.8833 970.014H40.2557L40.5574 968.878Z" fill="#333333"/>
<path d="M49.1887 979.594L49.7141 980.292L49.9914 980.129L50.0886 981.026L49.0281 980.883L49.0343 980.809L48.8525 980.712L49.1746 980.506L49.0044 979.763L49.1887 979.594Z" fill="#333333"/>
<path d="M69.006 970.034L69.9984 970.757L69.4876 970.926L69.3465 971.226V971.659H68.8357L68.4174 970.864L68.6314 970.768H68.8211L69.006 970.034Z" fill="#333333"/>
<path d="M55.7374 948.774L56.3455 949.35L56.0971 949.594L55.4115 950.042L55.2704 949.89L55.7374 948.774Z" fill="#333333"/>
<path d="M62.362 930.906L62.0361 931.492L62.4739 932.057L62.075 932.47L61.3064 932.195L61.2227 931.972L61.5058 931.813L61.1847 931.069L62.362 930.906Z" fill="#333333"/>
<path d="M60.1197 917.034L59.1705 917.885L59.8521 918.373L59.9914 918.095L60.7207 918.112L60.8493 917.845L60.0524 917.444L60.1422 917.377L60.1197 917.034Z" fill="#333333"/>
<path d="M43.0664 908.801L44.2291 909.478L44.414 908.668L43.0664 908.801Z" fill="#333333"/>
<path d="M43.0669 938.394L46.0056 938.367L53.1918 944.983L54.7376 946.594L51.7043 949.768L50.8172 954.345L48.3018 961.341L49.289 961.873L56.4873 961.697L55.8005 967.377L53.8837 969.564L52.2886 970.015L49.0697 967.151L46.2582 966.576L45.295 965.323L46.1658 964.609L46.662 964.854L46.652 964.681L47.0509 964.691L47.119 964.839L47.1532 964.681L47.3964 964.508L47.698 964.462L47.9072 964.014L47.6834 963.693L47.8829 963.586L47.2699 963.474L47.0315 963.26L47.0607 963.128L46.5888 962.98L46.6569 963.235L46.1656 962.878L46.1168 963L45.8833 962.878L45.9369 962.634L45.718 962.562L45.5672 962.262L43.1786 965.43L38.3429 963.459L34.2078 964.951L29.3965 961.207L23.4525 961.987L22.5769 963.236L20.9037 963.768L18.9225 962.338L19.7252 957.087L19.0734 956.583L19.1074 956.043L18.5626 955.62L18.5726 954.968L18.3974 954.693L17.6969 954.897L17.5752 954.306L17.3125 954.087L16.4466 954.112L16.2423 953.369L14.3596 954.469L13.8196 953.593L15.3958 951.907L15.9018 950.593L15.0017 949.299L12.6617 948.377L12.7834 947.18L15.1964 947.557L14.9823 946.416L15.6926 945.907L15.3959 942.805L17.1861 942.26L17.2542 940.711L17.4296 940.515L18.0764 940.187L18.0813 939.591L18.5435 939L15.4884 937.579L16.0235 936.127L17.7408 935.908L20.8057 937.141L22.231 936.499L22.8489 933.784L23.5008 933.611L26.1083 934.329L28.5261 935.231L30.7883 938.827L34.8309 940.696L34.8796 940.508L34.617 940.518L34.5283 940.27L34.8699 939.759L35.077 939.868L35.298 940.218L35.6288 940.212L35.64 940.499L35.5315 940.579L35.765 940.584L35.7845 940.421L35.9983 940.343L36.3195 940.391L36.4656 940.085L36.8985 940.044L37.059 939.723L37.4142 939.983L37.3218 939.494L37.565 939.408L37.1427 939.137L36.7088 938.618L36.4996 937.9L36.7088 937.92L36.6358 937.34L37.0883 937.299L37.1126 937.594L37.4482 937.768L37.5649 937.671L37.2973 937.569L37.4871 937.014L38.0222 937.131L37.993 937.447L38.1439 937.477L38.4163 937.171L38.6547 937.497L39.1509 937.355L39.2482 937.757L39.7833 938.231L39.7249 938.577L40.0897 938.659L40.3719 939.209H40.5373L40.4157 939.53L40.8779 939.453L41.739 939.545L41.7439 940.299L41.5543 940.533L42.9796 940.044L43.0669 938.394Z" fill="#333333"/>
<path d="M935.456 752.6L941.712 754.046L943.347 757.439L943.038 762.364L944.184 764.832V768.919L943.7 773.33L942.066 776.305L940.956 777.028H940.165L936.449 775.052H935.255L933.291 775.643L926.282 774.888L924.284 774.122L923.84 773.605V773.03L926.38 771.219L927.61 770.165L928.952 767.217L930.574 766.129L933.746 763.215L933.902 761.942L933.445 760.856L932.974 760.339L932.221 760.005L931.329 760.641L929.702 762.78L926.695 763.918H925.879L921.877 760.28L921.423 758.464L922.053 758.189L924.369 756.736L926.442 753.975H926.729L930.436 754.754L932.815 753.226L935.456 752.6Z" fill="#333333"/>
<path d="M564.983 737.518L572.577 738.012L572.937 738.257L580.575 738.46L588.328 740.514L593.915 746.94L599.02 749.778L596.832 751.002L596.213 759.214L596.887 761.793L594.63 762.34L593.901 768.232L586.182 767.411L585.563 766.806L578.27 765.942L577.692 766.417L570.344 765.106L569.505 764.515L563.107 767.224L563.753 769.601L560.767 770.292L559.254 765.841L550.214 763.738L552.057 754.33L553.213 753.336L555.869 745.787L562.047 744.202L564.028 743.9L564.983 737.518Z" fill="#333333"/>
<path d="M380.294 733.01L381.365 733.581L390.238 737.482L398.369 737.244L400.323 736.97L407.904 742.906L407.505 749.029L409.473 757.86L409.858 759.099L406.226 761.735L406.432 769.947L401.974 776.415L399.401 783.446L398.864 785.434L392.397 790.317L390.154 790.015L388.544 789.41L382.008 793.573L377.592 795.749L372.239 796.123L368.593 795.864L364.506 798.443L358.218 801.396L356.181 798.529L354.31 796.858L352.452 796.642L351.027 794.753L351.709 792.308L351.932 790.322L351.096 787.877L343.341 775.184L344.771 768.349L343.438 755.126L349.5 740.579L366.22 733.556L370.759 737.584H376.694L380.294 733.01Z" fill="#333333"/>
<path d="M499.815 765.403L506.336 759.111L523.556 761.796L534.784 774.941L535.597 778.277L537.991 780.576L539.201 787.189L537.917 789.319L538.306 794.281L536.593 797.134L533.392 800.222L533.567 802.329L533.237 803.482L533.87 812.531L525.119 825.962L520.741 827.94L520.779 829.596L524.538 847.823L531.221 850.647L537.178 852.824L544.63 853.688L548.4 857.939L549.563 858.127L563.24 851.491L563.577 851.109L565.546 847.923L574.18 845.74L580.321 848.015L587.076 843.219L599.814 846.474L603.921 857.939L601.802 872.898L594.977 888.548L594.406 890.306L594.949 892.083L593.629 893.534L591.334 893.091L588.909 893.029L582.342 904.688L587.251 916.04L597.261 922.672L598.032 926.347L586.308 944.461L582.923 955.139L584.616 967.389L586.487 977.317L594.028 983.341L600.619 988.068L602.008 993.112L601.196 997.406L599.986 1005.14L600.756 1007.84L597.013 1009.69L589.569 1007.79L582.751 1008.81L577.57 991.807L578.168 987.339L572.447 981.347L566.93 976.191L562.99 969.425L559.088 963.423L553.007 959.204L544.907 954.307L523.736 938.254V935.757L525.434 934.225L526.131 933.768L526.47 932.021L525.249 929.857L521.79 922.928L507.258 913.819L497.551 897.727L492.969 897.036L492.391 890.825H491.029L491.221 889.254L492.425 886.328L492.762 882.812L487.396 881.263L484.142 873.107L483.488 870.498L481.204 865.022L481.72 860.159V857.5L482.759 851.462L482.497 850.576L485.6 846.404L486.137 844.437L486.639 837.844L487.602 837.433L489.432 832.634L490.444 830.977L492.728 828.506L493.299 824.384L490.712 820.94L482.939 806.117L483.206 798.683L480.908 790.728L482.546 787.068L482.408 783.912L483.963 779.055L484.321 777.297L484.875 770.315L485.59 769.994L488.12 765.994L492.537 764.904L493.15 764.506L498.346 764.812L499.815 765.403Z" fill="#333333"/>
<path d="M472.379 766.999L477.715 768.695L477.803 774.96L477.346 776.885L478.231 782.539L477.239 787.49L477.336 789.629L476.937 792.512L476.412 796.77L476.489 797.198L479.288 805.012L479.88 806.539L480.485 807.951L483.21 813.699L484.104 814.996L485.012 816.364L486.691 819.635L488.232 822.804L487.475 828.826L487.2 829.906L485.7 836.072L484.847 836.245L481.779 838.954L479.577 842.224L481.27 848.779L480.898 850.047L478.6 854.152L479.426 857.063L477.321 862.494L477.004 863.675L477.1 868.098L479.646 871.93L478.545 875.215L476.578 877.606V880.257L470.881 888.051L464.717 887.662L464.455 885.53L461.772 884.982L455.085 893.496L450.228 909.228L448.232 920.97L448.618 923.102L453.062 930.507L450.943 939.467L440.389 953.312L431.927 960.4L427.758 964.419L424.758 969.073L420.08 977.731L412.553 985.741L411.989 987.916L409.471 990.308L405.288 989.328L404.366 988.723L400.651 982.485V976.823L402.853 974.518L404.462 971.306L406.967 967.329L408.04 965.457L408.178 962.503L406.265 959.968L405.233 962.604L401.829 965.175L399.413 966.364L397.266 968.972L393.922 970.326L392.67 973.582L390.84 976.708L392.698 979.878L393.702 982.831L397.087 986.562L399.454 994.471L396.812 1001.21L395.615 1001.49L391.941 1001.33L387.318 1001.44L385.749 1002.01L384.112 1001.1L380.768 1001.79L376.544 1000.05L375.636 1001.17L372.952 1001.79L370.751 1001.46L369.581 998.894L369.072 998.923L359.55 993.52L354.734 984.027L358.601 972.156L363.885 964.722L364.697 962.503L363.224 959.867L357.376 955.675L351.143 952.001L337.356 941.369L333.82 930.363V926.012L339.324 913.853L340.135 905.526L338.003 903.293L339.296 901.319L341.401 901.045L343.589 899.547L348.749 902.544L353.455 912.066L362.963 923.447L373.585 929.08L383.451 926.084L392.423 916.907L396.537 918.175L401.366 912.628L407.944 902.126L408.921 899.201L410.861 895.398L413.42 893.424H414.067L415.457 895.211L415.897 897.818L418.319 898.928L421.676 896.94L427.524 890.154V883.657L421.153 873.097L420.135 872.089L419.254 871.772L417.809 870.72L417.751 868.455L417.839 865.97L417.401 863.209L411.31 850.343L408.936 848.489L408.08 847.063L408.664 844.903L410.829 843.987L415.911 836.13L421.401 821.68L428.226 816.249L433.234 805.862L434.473 804.378L433.881 802.736L433.785 801.785L434.748 800.056L437.101 799.639L439.055 800.777L442.453 799.408L443.21 796.865L442.13 796.073L440.795 794.639L444.951 783.215L452.311 772.047L464.084 767.748L471.479 768.95L472.379 766.999Z" fill="#333333"/>
<path d="M863.544 1038.84L866.901 1023.52V1023.08L884.502 1004.19L910.207 990.538L919.178 988.938L932.074 985.921L933.821 984.58L939.545 973.499V969.089L935.775 960.875H937.537L940.963 961.912H947.402L953.485 979.319L953.825 979.625L954.837 982.519L957.659 981.918L958.009 982.019L975.211 977.807L987.581 986.237L991.571 987.895L992.975 989.393L1000.41 993.097L1008.18 1002.28L1009.45 1009.37L1011.83 1019.97L1012.27 1020.95L1012.72 1021.3L1013.97 1022.53L1015.65 1023.82L1018.95 1032.16V1032.74L1018.68 1035.74L1018.8 1037.29L1019.67 1040.42L1021.06 1043.48V1044.95L1020.63 1046.96L1020.44 1048.98L1020.55 1053.92L1021.53 1057.38L1024.35 1064.12V1071.58L1022.78 1076.38L1018.73 1070.55L1013.66 1065.66L1008.65 1065.47L1000.83 1071.71L995.575 1080.53L992.479 1087.56L983.687 1094.13H978.013L970.123 1093.57L959.4 1101.49L952.397 1112.04L950.595 1117.49L948.93 1127.78L942.793 1136.3L926.735 1132.1L910.182 1135.23L884.547 1132.06L870.512 1127.12L864.114 1128.15L850.052 1139.86L829.04 1146.77L812.501 1157.64L804.094 1170.22L794.187 1175.03L787.954 1178.55L785.876 1181.99L784.913 1184.1L768.855 1191.98L759.251 1199.43L756.687 1200L756.454 1200V1199.23L759.14 1188.83L761.937 1187.36L767.94 1183.73L772.776 1176.87L776.901 1170.36L802.202 1146.74L816.264 1121.86L825.472 1117.4L828.999 1108.67L833.677 1094.89L828.972 1079.3L815.184 1052.44L813.464 1044.44H815.253L827.431 1049.63L837.516 1041.83H841.149L844.039 1043.76L850.478 1047.08L853.877 1046.3L863.544 1038.84Z" fill="#333333"/>
<path d="M491.557 212.063L491.873 212.078L491.839 212.241L491.965 212.374L491.956 212.679L492.077 212.674L492.184 212.806L492.189 213.051L492.325 213.076L492.398 213.26L492.467 213.112H492.608L492.744 213.285L492.758 212.898L493.011 213.03L493.06 213.122L493.099 212.934L493.318 212.939L493.542 213.107L493.61 213.718L493.765 213.835L493.78 213.983L493.658 214.07L493.79 214.1L493.751 214.513L493.654 214.548L493.702 214.732L493.795 214.89L493.522 215.231L493.527 215.883L493.439 215.959V216.061L492.773 216.626L492.632 216.621L492.559 216.723L492.218 216.621L491.596 216.759L491.479 216.626L491.416 216.805L490.968 216.799L490.778 216.473L490.603 216.433L490.559 216.27L490.457 216.254L490.112 215.893L490.263 215.776L490.024 215.75L489.927 215.312L489.81 215.419L489.694 215.19L489.679 214.935H489.888L489.742 214.798L489.859 214.721L489.815 214.625L490.102 213.779L490.117 213.392L490.341 213.275L490.365 212.949L490.555 212.806L490.667 212.949L490.686 212.699L490.954 212.465L491.065 212.623L491.221 212.215L491.367 212.246L491.411 212.404L491.44 212.19L491.557 212.063Z" fill="#333333"/>
<path d="M516.193 134.474L516.456 134.999L515.648 137.974L513.97 138.712L512.16 138.972L512.457 138.269L512.155 137.505L512.763 135.457L513.644 134.861L515.021 134.948L516.193 134.474Z" fill="#333333"/>
<path d="M588.946 80.657L589.471 81.2274L589.272 81.4108L589.432 81.6146L589.583 81.966L589.422 82.2971L589.685 82.3379V83.163L589.52 83.3718L589.422 84.2173L588.951 84.6503L588.946 84.8948L588.831 85.1312L588.668 85.1746L588.265 85.5159L588.08 86.0456L587.807 86.2137L587.005 86.5397L586.878 86.3461L586.839 86.5906L586.1 86.8707L586.061 86.667L585.964 86.8045L585.754 86.5804L585.779 86.4225L585.55 86.4632L585.146 86.0404L585.175 85.852L585.01 85.8468V85.6328L584.747 85.2508L584.869 84.6956L585.282 83.9978L585.535 83.9926L585.949 83.4578L586.445 82.1233L586.649 82.2659L586.635 81.9553L586.81 81.889L586.825 81.5376L587.652 81.4357L587.535 81.2269L588.172 81.013L588.167 80.7532L588.785 80.7735L588.946 80.657Z" fill="#333333"/>
<path d="M608.762 207.306L609.978 208.65L609.341 209.735L606.782 210.407L607.2 211.462V212.063L605.668 214.151L605.974 215.684L607.648 216.408L608.854 214.951L611.209 215.669L612.425 217.019V217.936L611.544 218.71L610.771 218.501L609.146 218.348L608.314 218.954L604.646 219.586L602.827 219.01L600.492 220.559L599.46 221.409H598.803L596.609 220.564L591.18 222.703H589.4L587.634 221.333L584.019 223.538L581.845 225.077L580.157 224.71L579.081 225.372L577.418 227.684L574.066 227.481L573.628 227.313L562.702 230.837L558.119 230.104L555.458 230.914L553.857 230.557H551.902L549.513 232.213L546.896 234.494L544.551 234.367L542.697 235.742L540.426 236.516L539.472 235.727L535.347 236.038L532.097 235.06L526.147 235.742L523.511 236.496L520.348 236.053L519.945 235.87L518.315 236.002L516.301 234.973L515.124 235.406L511.704 234.795L510.351 236.649L510.254 237.051L509.052 237.494L505.934 235.865L503.696 235.426L502.261 234.123L500.724 233.572L497.503 235.233H495.689L491.086 236.837L489.914 239.761L488.479 240.214L485.847 238.437L483.084 237.708L481.639 238.702L480.875 239.934H479.893L478.127 238.279L475.115 237.764H473.16L468.869 235.844L465.429 236.007L463.221 235.233L459.022 230.455V226.706L458.667 225.051L458.001 223.579L455.554 221.73L453.978 219.774L452.552 214.589L453.078 213.55L451.813 209.542L452.333 206.694L454.046 204.581L454.182 204.076L456.074 204.713L457.519 204.351L461.275 205.548L464.228 204.428L474.463 210.545L475.728 214.253L482.111 221.18L482.88 223.075L489.077 224.236L494.973 227.027L497.445 226.875L500.49 228.403L502.3 228.667L504.781 228.066L505.851 228.515H506.328L508.021 229.044L512.769 229.544L513.003 229.834L516.262 231.016L517.575 230.7L518.48 231.209L519.541 231.601L521.594 231.377L523.196 231.585L524.593 231.297L525.447 230.669L525.982 230.404L528.39 229.493L528.949 229.605L530 228.953L538.844 224.073L547.368 223.472L548.847 222.953L549.197 222.219L550.063 222.026L559.822 223.401L568.033 220.141L570.855 221.251L576.08 220.151L582.073 217.706L586.189 217.788L587.157 216.835L588.544 217.222L590.679 217.548L592.625 216.688L594.615 215.633L595.106 215.231L598.025 214.971L598.448 214.732L602.136 212.297L604.18 209.082L608.762 207.306Z" fill="#333333"/>
<path d="M591.117 0H593.58L596.724 1.17448L599.924 5.14462L600.219 5.82189L601.981 7.09004L601.595 9.08591L602.036 10.0226L600.907 13.546L596.642 15.3113L594.75 15.7436L593.739 16.2913L592.149 17.826L592.094 18.0854L586.852 24.4405L585.492 25.276L583.483 24.6697L582.413 24.1806L580.414 21.0472L579.295 21.144L578.292 20.9351L578.555 22.7539L579.202 24.7715L581.479 26.3866L581.169 31.2567L578.761 34.4415L575.514 36.5599H573.959L572.294 38.3323L569.083 39.4959L568.013 39.0985L565.863 40.5251L565.396 40.627L562.438 44.1832L559.83 46.7511L559.14 47.7701L558.42 53.3847L555.822 55.5755L554.907 54.5514L551.696 57.8937L551.001 57.2874L550.835 58.5968L549.142 61.4703H547.445L546.997 61.1901L546.209 62.9224L542.76 64.3082L541.651 68.5082L541.816 70.2303L541.699 75.5046L539.03 76.8809L536.45 75.2236L535.961 74.9426L533.952 73.4223L532.769 74.7697L531.276 73.7177L531.469 70.5978L530.111 68.3893V61.9849L526.905 63.8599L524.215 61.2462L523.811 61.1188L523.568 61.3684L520.532 63.7427H519.584L517.2 66.978L516.032 66.4991L514.028 68.0275L512.145 66.2494L510.881 66.6774L508.063 63.6518L507.403 63.3564L506.708 64.0769L508.242 64.8983L508.944 67.3986L510.423 69.3584L511.737 71.6497L512.778 72.7607L512.997 73.153L514.072 74.1415L514.432 71.5736L517.725 68.2466L520.386 66.8557L523.281 68.5116L523.495 68.9497L523.763 68.5217L525.621 67.6199L525.825 67.3856L526.03 67.569L526.72 67.0442L529.338 69.0771L529.153 74.8293L526.322 78.3867L525.319 79.6542L524.531 85.3197L525.047 88.2239L523.422 90.1905L517.565 92.0655L515.444 91.7445L512.797 93.7977L511.995 97.2623L512.627 101.073L512.783 101.338L511.236 104.054H508.341L506.191 102.678L503.88 106.454V108.155L509.518 123.97L508.448 130.094L508.779 135.322L508.127 140.335L508.224 142.23L507.689 143.127V143.993L504.712 145.399L504.42 145.725L503.681 147.111L502.104 148.293L499.818 149.587L498.826 150.331L497.58 151.055L496.325 151.676V151.89L495.858 152.756L496.344 157.668L515.035 172.667L517.545 173.982L524.317 179.484L517.263 188.93L513.079 189.746L511.922 188.849L509.694 187.585L506.784 188.319L504.381 191.396L504.644 195.044L505.315 195.605L507.504 195.432L508.312 195.89L508.331 196.991L507.643 197.671L506.859 197.974L502.986 201.238V201.735L504.216 204.603V204.918L503.739 205.413L503.141 205.005L500.222 204.572L497.75 203.268L498.684 202.279L501.034 202.712L501.652 201.968V201.586L499.473 199.895L498.456 198.621H497.42L496.481 200.307L495.8 200.674L493.79 201.128L492.38 201.041L488.911 206.1H487.987L486.148 202.616L486.717 201.347L485.851 200.471L485.194 198.636L484.868 197.062L484.343 196.705L480.874 194.79L476.613 191.264L474.351 187.178L472.439 179.515V173.865L474.886 170.39L476.224 169.193L477.955 166.156L478.15 161.836L477.041 159.278L474.282 157.79L472.307 157.49L471.417 157.933L467.803 158.687L465.336 157.158L464.747 157.383L464.1 156.613L461.799 154.58L460.977 153.001V151.844L461.118 151.743L462.349 147.544V146.79L462.612 146.546L463.196 143.907V141.502L465.954 137.675L466.061 137.13V134.374L467.389 132.983L470.935 133.839L474.316 131.648L475.372 128.336L478.739 125.743H479.074L479.259 125.213L480.281 124.658L480.086 121.372L478.87 120.286L477.698 118.004L477.863 116.735L477.381 114.667L476.214 112.216L475.387 111.33L475.129 109.984L475.46 109.653L474.287 106.606L474.19 105.791V105.002L474.608 104.186L475.47 104.563L477.367 103.921L479.6 105.282L480.612 105.689L483.03 107.197L483.759 110.504L484.455 111.839V114.295L484.187 115.039L485.306 115.884L487.242 118.529L490.487 121.998V124.637L490.414 125.213L490.531 128.138L489.757 128.469L490.745 129.585L491.017 128.785L491.397 128.53L491.844 126.268L493.474 125.402L493.713 125.025L492.01 122.105L491.864 119.502L491.699 118.778L491.339 118.35L490.56 117.856L488.303 117.229L486.187 115.217L486.435 113.082L486.25 111.89L486.634 109.786L487.607 109.393L487.505 109.037L488.556 105.587L487.189 103.906L485.768 102.683L485.564 102.8L484.708 102.316L482.908 103.58L478.335 99.7792L475.902 96.1669L475.757 91.612L477.187 89.9765L477.269 90.0681L478.671 90.2312L479.682 89.9714L480.033 89.6096L480.305 88.1321L481.249 86.0788L482.27 86.5323L486.809 81.9468L487.452 79.9292L487.641 79.8782L487.476 76.8773L485.588 73.8611L487.471 71.8741L487.807 70.5188H487.982L490.083 68.2923L492.204 63.5795L493.309 61.7963L494.452 57.9751L497.531 52.5031L497.677 52.5387L498.923 51.1682L500.037 47.8055L502.226 45.8134L503.034 44.4582L505.549 41.2177L505.758 40.7847L508.808 38.8588L509.149 39.0014L510.671 39.2053L512.491 38.0997L514.32 34.6962L520.247 30.3197L525.538 24.015H528.999L537.791 26.2055L545.999 21.6157L549.418 15.1741L548.2 12.7675L548.51 11.4418L552.741 9.61157L554.853 10.6204L556.635 9.71249L557.559 9.8023L558.176 10.0112L560.677 10.1641L561.397 10.4494L564.437 8.95146L569.115 8.79014L576.098 6.70779L577.11 6.25388H580.171L584.368 3.09793L587.443 1.14527L591.117 0Z" fill="#333333"/>
<path d="M1080.82 645.185L1082.31 648.205L1085.15 650.618L1086.76 650.827L1088.25 651.807L1087.01 652.563L1084.67 652.088L1083.1 652.275L1082.11 653.14L1076.58 651.98L1074.92 650.273L1074.41 648.753L1074.83 647.788L1075.95 648.378L1077.33 647.593L1078.49 644.458L1079.2 643.888L1080.82 645.185Z" fill="#333333"/>
<path d="M1082.53 516.906L1079.89 517.242L1074.01 521.61L1070.53 522.71L1070.45 522.473L1069.91 522.908L1058.46 526.535L1053.73 533.062L1055.56 539.429L1064.32 547.41L1069.92 555.305L1077.59 550.624L1082.32 543.781L1087.14 535.382L1089.54 525.534L1086.65 521.673L1082.53 516.906Z" fill="#333333"/>
<path d="M1167.7 517.198L1161.61 518.411L1150.78 526.593L1145.55 539.513L1138.86 548.989L1137.61 553.657L1138.53 559.1L1141.21 564.315L1143.65 566.08H1144.06L1154.8 569.546L1159.35 573.456L1159.22 577.278L1155.68 581.139L1150.06 585.318L1143.38 589.77L1131.95 584.766L1120.64 571.036L1113.9 569.653L1111.92 568.645L1108.04 565.821L1105.6 562.161L1105.23 561.397L1103.34 559.739L1098.28 562.405L1096.85 564.524L1094.25 567.405L1093.04 568.242L1089.65 569.511L1084.37 570.476L1069.33 578.114L1063.6 588.418V590.824L1065.6 596.903L1069.44 600.191L1070.21 600.448L1078.45 606.27L1081.6 613.694L1081.71 623.868L1081.44 624.933L1082.95 633.278L1084.73 636.347L1085.65 636.793L1089.28 639.805L1090.56 642.472L1090.48 647.097L1093.31 651.52L1093.51 651.75L1095.42 652.417H1097.4L1106.41 649.562L1114.17 644.647L1117.85 644.229L1133.23 644.387L1142.49 647.4L1150.98 651.91L1154.32 654.273L1155.43 655.34L1154.79 657.299L1155.8 659.331L1161.99 662.616L1177.54 660.844L1186.55 661.883L1191.89 660.946L1193.77 659.092V658.572L1193.57 658.068L1193.35 657.997L1192.69 657.284L1192.77 656.158L1194.6 654.24L1194.74 653.374L1185.73 644.295L1181.91 637.409L1176.16 633.342L1162.68 620.557L1162.68 620.555L1162.16 619.724L1162.05 619.312L1161.76 619.572L1161.64 619.32V618.54L1161.41 618.792L1160.56 616.867L1160.88 616.707L1160.6 616.263L1161.14 615.693L1160.59 615.056L1160.17 615.431L1160.47 612.117L1161.25 610.841L1161 610.312L1160.23 609.563L1159.85 608.616L1159.47 608.03L1158.7 607.836L1157.97 608.183L1156.7 608.071L1156.27 607.363L1154.82 606.033L1154.24 605.483L1153.94 604.317L1154.24 603.835L1154.54 603.973L1154.79 603.097L1154.32 602.952L1154.3 602.873L1154.33 602.185H1154.1L1153.89 601.444L1153.88 601.357L1153.93 601.212L1154.12 601.217L1153.87 600.708L1154.33 600.316L1153.84 599.822L1153.66 599.98L1153.64 599.873L1153.92 599.424L1154.76 599.756L1154.74 599.455L1154.18 599.223L1154.56 599.053L1154.58 599.063L1154.59 599.226L1155.38 599.944L1155.52 599.631L1155.63 599.7L1156.01 600.578L1156.19 600.897L1156.8 601.2H1157.6L1159.09 602.295L1159.79 603.359L1158.69 606.596L1159.03 606.942L1160.48 607.577L1160.76 609.003L1162.06 610.516L1162.26 610.783L1162.76 610.78L1176.07 604.994L1191.02 603.507L1200 597.005V596.323L1194.05 582.677L1181.06 570.165L1176.85 564.489L1174.12 553.067L1175.17 544.67L1176.16 539.594L1174.47 527.571L1171.49 519.867L1167.7 517.198Z" fill="#333333"/>
<path d="M876.636 319.779L878.733 326.372L877.694 330.593L878.514 336.17L879.876 337.132H883.519L886.638 338.396L889.06 340.347L889.051 340.606L889.406 341.166L889.382 341.457L889.684 341.834L889.898 341.874V342.068L890.384 342.633V342.847L890.525 342.781L891.124 343.255H891.265L891.557 342.694L892.155 342.603L892.525 343L892.695 342.98L893.162 342.409H894.247L895.045 342.21H895.702L896.018 342.46L896.572 341.823H896.991L897.472 342.2L898.163 341.548L899.379 341.742L899.637 342.088L900.727 342.175L901.943 341.879V341.727L902.289 342.109H902.473L902.697 341.813L902.95 341.584H903.315L903.806 342.109L904.517 341.533L905.47 341.752L905.626 341.604V341.299H906.249V340.744L906.735 340.168L907.119 340.316L907.26 339.567L907.489 339.226L908.243 338.706L908.209 338.589L908.365 338.339L908.71 337.998L909.527 337.733L909.552 337.397L910.033 337.392L910.646 336.842L910.963 336.872L911.211 336.562V336.358L911.877 335.706L911.503 335.482H911.799V334.866L913.016 333.164L912.49 331.769L911.4 331.473H910.349L908.958 329.497V328.896L909.425 327.037V322.453L910.534 317.813L912.971 315.057L914.254 309.906L912.727 307.665L913.229 305.756L911.406 303.552L907.395 302.954H904.781L902.441 300.671V298.676L900.364 296.868H898.506L896.552 295.85L896.465 295.896L894.675 296.303L893.624 295.666L893.118 295.172L892.899 294.806L892.398 292.33V291.928L892.836 290.69L891.182 288.51H889.878L887.776 290.181H885.373L883.184 291.923L881.53 293.94L879.414 297.775L880.247 305.886L879.208 311.281V314.119L876.636 319.779Z" fill="#333333"/>
<path d="M825.962 304.937L819.978 306.995L813.995 308.573L812.019 311.558L812.744 316.708L810.434 321.052V324.378L811.012 325.305L813.27 327.353V332.823L813.075 332.976L813.08 333.119L813.202 333.154L812.983 333.317L812.988 333.547L813.085 333.577L813.09 334.097L812.93 334.53L812.75 334.519L812.764 335.354L812.613 335.4L812.506 335.584L812.516 336.047L812.39 336.348L812.181 336.455L812.258 336.984L812.152 337.285L811.899 337.484L812.01 337.565L811.923 337.611L811.933 337.911L812.123 338.08L811.831 338.085L811.694 338.176L811.519 338.192L811.529 338.574L811.31 338.737L811.588 338.94L811.607 339.302L811.952 339.21L812 339.322L812.274 339.312L812.308 339.184L812.419 339.337L812.629 339.118L812.634 339.133L813.85 341.649V342.352L813.013 347.823L812.536 349.85L809.831 352.906L810.123 357.235L809.598 358.987L807.535 360.251L807.166 362.125L807.886 364.274L816.127 372.852L818.316 378.343L827.715 382.54L832.356 388.947L842.056 393.165L844.557 391.046L851.416 397.412L858.674 405.114L864.916 408.368L868.496 413.141H876.41L880.75 415.178L887.609 414.618L896.054 419.528L904.529 417.134L907.01 413.874L912.371 408.251L913.558 407.508L914.113 407.304H914.842L921.361 408.333L923.171 408.873H926.236L926.722 408.435L932.969 404.951L935.79 403.637L937.367 403.84L939.565 405.542L940.626 406.754L943.506 415.815L940.937 428.177L942.358 435.356L948.205 441.127L956.427 442.956H958.847C958.847 442.956 964.993 433.483 965.021 433.454C965.048 433.425 967.475 421.39 967.475 421.39L962.489 414.302V407.07L961.669 405.651L958.519 397.107L960.01 393.384L968.329 387.195L971.7 385.445L977.57 376.932V362.981L972.004 357.449L966.215 359.914L958.023 355.392L945.792 357.908L945.179 359.171L943.701 361.392L942.922 361.667L941.249 361.544L940.519 361.28L938.009 359.731L933.737 356.451L925.827 357.775L919.989 354.251L909.948 356.4L904.13 353.436L896.911 356.502H889.545L880.536 353.558L873.628 346.356L868.811 338.879L867.284 335.639L862.127 332.206L859.315 324.179L857.437 323.221L854.898 324.006H854.168L853.176 323.659L852.641 323.323L849.605 319.198L849.43 318.841L844.925 315.276L833.133 310.702L830.681 306.78L825.962 304.937Z" fill="#333333"/>
<path d="M675.345 505.893L670.796 507.849L669.531 510.264L666.165 511.568L662.545 511.282L660.288 510.141L653.876 511.843L650.043 515.49L650.802 518.097L657.087 527.103L661.718 532.441L666.272 531.666L668.179 533.459L669.298 537.106L673.048 541.655L673.477 542.892L672.231 543.786L672.635 544.403L671.978 544.79L671.117 543.473L670.475 543.931L671.796 545.948L672.363 545.543L677.816 555.743L676.561 557.314L675.853 556.573L673.623 551.617L672.715 550.869L671.587 551.128L670.611 552.078V555.132L671.808 557.006L675.756 561.297L682.442 572.131L685.799 575.307L689.214 581.959L690.462 585.061L690.328 585.998H690.837H690.839L690.963 586.314L690.596 586.482L690.951 587.19L691.262 587.052L691.299 587.144L691.107 587.373V587.908L691.666 588.183V588.326L692.002 588.54L692.192 588.524L692.668 589.003L692.936 588.672L693.276 588.891L693.184 589.395L693.617 589.477L693.972 589.38L694.551 589.115L694.945 589.131L694.896 588.881H695.519V588.341H695.685L695.368 587.634L695.259 587.69L695.179 587.567L695.393 587.221L695.869 586.833L695.743 586.706L695.928 586.716L696.351 586.232L695.957 585.713L696.035 585.474L696.808 585.764L696.974 585.412L696.896 584.032L696.677 583.956V583.632L696.684 583.604L696.857 583.294L696.75 583.291L696.998 582.142L697.903 578.19L700.408 576.331L701.651 576.079L704.047 581.834L704.062 582.137L704.159 582.244L703.896 582.575L703.955 582.794H704.193L704.31 582.687L704.534 583.324L704.884 583.166V583.533L705.152 583.681L704.709 584.068L705.244 584.287L705.117 584.47L705.56 584.434L705.58 584.643L705.215 584.806L705.546 585.428L705.58 585.794L705.92 585.662L705.906 586.395L705.988 586.268L706.188 586.299L707.097 585.55L706.874 584.959L707.282 584.333L707.564 584.46V583.594L707.808 583.197L707.428 583.263L707.905 582.718L707.555 582.639L707.579 582.374L707.822 582.198L707.62 581.898L707.817 579.667L710.267 578.068L710.707 577.245L713.045 574.306L717.931 571.367L721.921 569.539L722.521 569.353L723.12 569.401L723.137 569.164L724.769 568.66L728.722 565.996L729.31 566.123L730.171 565.033L731.159 564.448L733.523 563.999L733.65 562.93L734.331 562.563L735.965 559.191L733.893 552.458L732.395 549.351L731.752 545.999L732.696 539.948L733.873 537.361L736.403 534.162L733.611 532.542L730.497 528.06L728.911 521.775L726.693 518.658L726.221 516.299L725.564 515.464L725.671 514.782L725.413 514.817L725.17 514.675V514.277L725.735 514.16L725.545 513.376L725.472 513.488H725.175L725.058 513.355V513.085L725.326 512.724L724.864 512.235L724.771 512.27V512.026L724.65 512.006L724.548 511.343L724.28 511.741H723.341L722.903 512.418H723.278L723.419 512.551L723.55 512.887L723.273 512.759L722.655 513.111L722.782 513.162V513.294H722.665L722.383 513.569L722.684 514.018L722.548 514.135L722.723 514.226L722.592 514.262L722.577 514.506L722.127 514.68L722.353 515.349V515.744L722.101 516.35V517.099L721.176 522.05L715.484 531.223L712.556 533.536L710.522 534.152L707.798 533.561L707.005 532.69L706.81 531.977L707.224 530.592L706.733 529.756H705.687L704.383 530.673L704.183 530.719L703.979 530.576L703.118 531.554L702.135 533.357L700.987 534.763L699.829 535.889L698.423 536.79V537.85L699.708 539.902L699.362 541.018L697.261 541.649L695.203 541.13L691.652 539.627L689.399 537.549L688.611 534.982L689.299 533.255L689.521 532.97L690.036 529.68L689.263 528.279L688.368 527.816L686.767 528.009L685.76 527.357L683.503 523.639L682.939 521.734V521.383L684.486 519.412L683.975 516.096L682.978 515.306L681.489 515.459L679.261 514.578L678.264 513.493L677.714 511.267L677.123 508.942L677.081 508.501L675.345 505.893Z" fill="#333333"/>
<path d="M79.7125 575.057H83.3864L87.6176 579.126L88.5021 584.781L87.5681 586.207L84.9411 588.51L82.6692 596.623V597.199L82.4405 598.376L82.5281 598.472L82.4211 598.854L82.2509 599.012L82.4649 599.155L82.2265 599.491L82.4503 599.394L82.1876 599.685L82.2703 600.056L82.0611 600.123L82.2119 600.224L82.1146 600.296L82.1292 600.591L82.0174 600.617L82.1439 600.749L81.8422 600.988L81.5211 600.785V600.382L81.4481 600.362L81.4238 600.041L80.9568 599.196L79.5703 597.912L77.2401 596.654L72.2479 595.398L70.4041 593.007V590.399L73.7339 580.329L76.3207 577.045L79.7125 575.057Z" fill="#333333"/>
<path d="M69.6301 536.686L67.6112 539.969L67.2731 540.33L67.1442 540.628L66.1931 540.985L65.9037 542.144L62.6953 545.595V556.273L63.9699 558.417L66.1031 565.023L65.2202 569.862L65.4829 570.183L66.5774 570.367L73.4563 570.754L78.9244 571.375L83.6919 572.203H84.9568L87.45 571.772L87.8027 572.027L88.2746 571.747L88.44 571.706L88.5811 571.859L88.7124 571.65L89.2524 571.625L89.3837 571.772L89.5492 571.553L89.7437 571.676V571.487L90.0405 571.4L90.3081 571.513L90.5951 571.181L90.4686 571.069L90.5951 570.932L90.8627 570.927L90.8918 570.249L91.2421 570.168L91.2712 570.051L91.1545 569.985L91.4269 569.429L91.3151 569.297L91.4172 569.277L91.4222 569.052L91.3152 569.001V568.973L91.4806 568.859V568.518H91.3152V568.492L91.4125 568.416V567.344L91.5098 567.26V566.979L91.4125 566.921V566.343L91.4514 566.282L91.4125 566.19V566.017L91.3152 565.849L91.4417 565.818L91.4029 565.614L91.5294 565.497L91.4078 565.309L91.4515 565.253L91.4272 565.187V564.545L91.3154 564.527V564.476L91.3542 564.351L91.398 564.346L91.4321 564.01L91.3154 564.005V563.987L91.5003 563.659L91.4321 563.327L91.3154 563.266V558.641L90.6587 557.419V556.034L88.2311 545.612L84.6312 543.837H82.9528L75.641 538.639L73.5199 537.496L72.1067 536.686L69.6301 536.686Z" fill="#333333"/>
</svg>
